<svg id="Camada_1" data-name="Camada 1" xmlns="http://www.w3.org/2000/svg" viewBox="0 0 299.82 100"><defs><style>.cls-1{fill:#003b4d;}.cls-2{fill:#f0d283;}.cls-3{fill:#a1d683;}.cls-4{fill:#a2d9e7;}.cls-5{fill:#5fd0df;}.cls-6{fill:#d9d8d6;}.cls-7{fill:#dea36d;}</style></defs><path class="cls-1" d="M117.38,34.31c0-13.1,9.62-22.73,23.26-22.73,11.26,0,19.85,6.56,22.45,16.29a.92.92,0,0,1-.88,1.16h-5.35A9,9,0,0,1,150,25.68a11.85,11.85,0,0,0-9.33-4.07c-7.42,0-12.3,5.35-12.3,12.7S133.22,47,140.64,47A11.85,11.85,0,0,0,150,42.94a9,9,0,0,1,6.89-3.35h5.35a.92.92,0,0,1,.88,1.17C160.49,50.48,151.9,57,140.64,57,127,57,117.38,47.41,117.38,34.31Z"/><path class="cls-1" d="M185.85,12.45h.83a.91.91,0,0,1,.91.91V47.08a9.09,9.09,0,0,1-9.09,9.09h-.83a.91.91,0,0,1-.91-.91V21.54A9.09,9.09,0,0,1,185.85,12.45Z"/><path class="cls-1" d="M201.22,34.31c0-13.1,9.63-22.73,23.26-22.73,10.4,0,18.54,5.6,21.77,14.13A.92.92,0,0,1,245.4,27h-7.71a6.31,6.31,0,0,1-4.45-2,12,12,0,0,0-8.76-3.39c-7.42,0-12.3,5.35-12.3,12.7S217.06,47,224.48,47c5.49,0,9.36-2.2,11.37-6.48h-6.26a7.78,7.78,0,0,1-7.78-7.78h0a.91.91,0,0,1,.91-.91h24.05a.91.91,0,0,1,.91.91v3.83C246.61,48.48,237.32,57,224.48,57,210.85,57,201.22,47.41,201.22,34.31Z"/><path class="cls-1" d="M261.32,30.77c0-11.9,6.75-19.19,19.18-19.19s19.32,7.29,19.32,19.19V55.26a.91.91,0,0,1-.91.91h-.83A9.09,9.09,0,0,1,289,47.08V43.74H271.88v3.34a9.09,9.09,0,0,1-9.09,9.09h-.56a.91.91,0,0,1-.91-.91Zm26.76,3.61a.91.91,0,0,0,.91-.91v-2.7c0-6-2.61-9.16-8.56-9.16s-8.55,3.14-8.55,9.16v2.7a.91.91,0,0,0,.91.91Z"/><path class="cls-1" d="M119.05,76.87a3.17,3.17,0,0,1-1.23-1.18,3.5,3.5,0,0,1,0-3.4,3.17,3.17,0,0,1,1.23-1.18,3.62,3.62,0,0,1,1.76-.44,3.66,3.66,0,0,1,1.39.26,2.92,2.92,0,0,1,1.08.75l-.61.59a2.4,2.4,0,0,0-1.82-.77,2.73,2.73,0,0,0-1.31.32,2.5,2.5,0,0,0,0,4.34,2.73,2.73,0,0,0,1.31.32,2.41,2.41,0,0,0,1.82-.78l.61.59a3.07,3.07,0,0,1-1.08.76,3.75,3.75,0,0,1-1.4.25A3.55,3.55,0,0,1,119.05,76.87Z"/><path class="cls-1" d="M130.23,76.43v.8h-4.7V70.75h4.57v.8h-3.65v2h3.25v.78h-3.25v2.1Z"/><path class="cls-1" d="M138.23,70.75v6.48h-.76l-3.89-4.83v4.83h-.92V70.75h.76l3.88,4.83V70.75Z"/><path class="cls-1" d="M142.39,71.55h-2.22v-.8h5.36v.8H143.3v5.68h-.91Z"/><path class="cls-1" d="M151.8,77.23l-1.4-2-.41,0h-1.6v2h-.93V70.75H150a3,3,0,0,1,2,.6,2,2,0,0,1,.72,1.66,2.17,2.17,0,0,1-.37,1.28,2,2,0,0,1-1,.76l1.54,2.18Zm-.49-3.14a1.5,1.5,0,0,0,0-2.16,2.11,2.11,0,0,0-1.35-.38h-1.57v2.92H150A2.11,2.11,0,0,0,151.31,74.09Z"/><path class="cls-1" d="M156.28,76.87A3.09,3.09,0,0,1,155,75.68a3.4,3.4,0,0,1,0-3.38,3.09,3.09,0,0,1,1.24-1.19,3.57,3.57,0,0,1,1.77-.44,3.62,3.62,0,0,1,1.76.44A3.17,3.17,0,0,1,161,72.29a3.5,3.5,0,0,1,0,3.4,3.17,3.17,0,0,1-1.23,1.18,3.61,3.61,0,0,1-1.76.43A3.57,3.57,0,0,1,156.28,76.87Zm3.05-.71a2.43,2.43,0,0,0,.9-.9,2.61,2.61,0,0,0,0-2.54,2.43,2.43,0,0,0-.9-.9,2.61,2.61,0,0,0-1.28-.32,2.69,2.69,0,0,0-1.3.32,2.43,2.43,0,0,0-.9.9,2.61,2.61,0,0,0,0,2.54,2.43,2.43,0,0,0,.9.9,2.69,2.69,0,0,0,1.3.32A2.61,2.61,0,0,0,159.33,76.16Z"/><path class="cls-1" d="M167.24,70.75h.93v6.48h-.93Z"/><path class="cls-1" d="M176.61,70.75v6.48h-.76L172,72.4v4.83H171V70.75h.76l3.89,4.83V70.75Z"/><path class="cls-1" d="M180.77,71.55h-2.22v-.8h5.36v.8h-2.22v5.68h-.92Z"/><path class="cls-1" d="M190.55,76.43v.8h-4.71V70.75h4.58v.8h-3.65v2H190v.78h-3.25v2.1Z"/><path class="cls-1" d="M197.44,74h.89v2.53a3.42,3.42,0,0,1-1.13.61,4.21,4.21,0,0,1-1.33.21,3.62,3.62,0,0,1-1.77-.43,3.17,3.17,0,0,1-1.23-1.18,3.44,3.44,0,0,1,0-3.4,3.09,3.09,0,0,1,1.24-1.19,3.92,3.92,0,0,1,3.19-.17,3,3,0,0,1,1.08.74l-.57.58a2.62,2.62,0,0,0-1.88-.75,2.75,2.75,0,0,0-1.33.32,2.32,2.32,0,0,0-.92.89,2.5,2.5,0,0,0,.92,3.45,2.92,2.92,0,0,0,2.84-.1Z"/><path class="cls-1" d="M205.35,77.23l-1.39-2-.41,0H202v2H201V70.75h2.53a3,3,0,0,1,2,.6,2,2,0,0,1,.72,1.66,2.17,2.17,0,0,1-.37,1.28,2.11,2.11,0,0,1-1,.76l1.53,2.18Zm-.49-3.14a1.48,1.48,0,0,0,0-2.16,2.08,2.08,0,0,0-1.34-.38H202v2.92h1.57A2.08,2.08,0,0,0,204.86,74.09Z"/><path class="cls-1" d="M212.81,75.61h-3.45l-.71,1.62h-1l2.93-6.48h.92l2.94,6.48h-1Zm-.33-.74-1.4-3.18-1.39,3.18Z"/><path class="cls-1" d="M216.38,70.75h2.73a3.86,3.86,0,0,1,1.83.41,3,3,0,0,1,1.23,1.14,3.47,3.47,0,0,1,0,3.38,3,3,0,0,1-1.23,1.14,4,4,0,0,1-1.83.41h-2.73Zm2.68,5.68a3,3,0,0,0,1.38-.31,2.13,2.13,0,0,0,.92-.86,2.61,2.61,0,0,0,0-2.54,2.13,2.13,0,0,0-.92-.86,3,3,0,0,0-1.38-.31h-1.75v4.88Z"/><path class="cls-1" d="M226.11,76.87a3.13,3.13,0,0,1-1.23-1.19,3.4,3.4,0,0,1,0-3.38,3.13,3.13,0,0,1,1.23-1.19,3.63,3.63,0,0,1,1.77-.44,3.56,3.56,0,0,1,1.76.44,3,3,0,0,1,1.23,1.18,3.44,3.44,0,0,1,0,3.4,3,3,0,0,1-1.23,1.18,3.56,3.56,0,0,1-1.76.43A3.62,3.62,0,0,1,226.11,76.87Zm3-.71a2.43,2.43,0,0,0,.9-.9,2.61,2.61,0,0,0,0-2.54,2.43,2.43,0,0,0-.9-.9,2.59,2.59,0,0,0-1.28-.32,2.68,2.68,0,0,0-1.29.32,2.38,2.38,0,0,0-.91.9,2.61,2.61,0,0,0,0,2.54,2.38,2.38,0,0,0,.91.9,2.68,2.68,0,0,0,1.29.32A2.59,2.59,0,0,0,229.16,76.16Z"/><path class="cls-1" d="M117.91,81.86h2.73a4,4,0,0,1,1.82.41,3,3,0,0,1,1.24,1.14,3.47,3.47,0,0,1,0,3.38,3,3,0,0,1-1.24,1.14,3.84,3.84,0,0,1-1.82.41h-2.73Zm2.67,5.68a3.06,3.06,0,0,0,1.39-.31,2.25,2.25,0,0,0,.92-.86,2.49,2.49,0,0,0,.32-1.27,2.52,2.52,0,0,0-.32-1.27A2.31,2.31,0,0,0,122,83a3.06,3.06,0,0,0-1.39-.3h-1.75v4.87Z"/><path class="cls-1" d="M131.18,87.54v.8h-4.7V81.86h4.57v.81h-3.64v2h3.25v.78h-3.25v2.1Z"/><path class="cls-1" d="M141.52,85.06h.89v2.53a3.38,3.38,0,0,1-1.12.61,4,4,0,0,1-1.34.22,3.74,3.74,0,0,1-1.77-.43A3.36,3.36,0,0,1,137,83.4a3.16,3.16,0,0,1,1.24-1.19,4,4,0,0,1,3.19-.17,2.77,2.77,0,0,1,1.08.75l-.57.57a2.62,2.62,0,0,0-1.88-.75,2.75,2.75,0,0,0-1.33.32,2.32,2.32,0,0,0-.92.89,2.52,2.52,0,0,0-.33,1.28,2.48,2.48,0,0,0,.33,1.27,2.41,2.41,0,0,0,.92.9,2.74,2.74,0,0,0,1.32.32,2.81,2.81,0,0,0,1.52-.41Z"/><path class="cls-1" d="M149.81,87.54v.8H145.1V81.86h4.58v.81H146v2h3.25v.78H146v2.1Z"/><path class="cls-1" d="M152.71,88.19a2.85,2.85,0,0,1-1.07-.59l.34-.72a2.89,2.89,0,0,0,1,.54,3.47,3.47,0,0,0,1.19.21,2.13,2.13,0,0,0,1.2-.27.85.85,0,0,0,.4-.73.7.7,0,0,0-.22-.54,1.35,1.35,0,0,0-.53-.32,8.25,8.25,0,0,0-.91-.25,12,12,0,0,1-1.18-.35,1.89,1.89,0,0,1-.76-.55,1.4,1.4,0,0,1-.32-1,1.69,1.69,0,0,1,.27-.94,1.87,1.87,0,0,1,.83-.66,3.31,3.31,0,0,1,1.38-.25,4.79,4.79,0,0,1,1.13.14,3.08,3.08,0,0,1,1,.43l-.3.74a3.64,3.64,0,0,0-.88-.39,3.18,3.18,0,0,0-.9-.14,2,2,0,0,0-1.18.29.87.87,0,0,0-.4.74.71.71,0,0,0,.23.54,1.5,1.5,0,0,0,.55.33,8.71,8.71,0,0,0,.89.24,11.23,11.23,0,0,1,1.18.35,2,2,0,0,1,.76.54,1.44,1.44,0,0,1,.32,1,1.62,1.62,0,0,1-.28.93,1.74,1.74,0,0,1-.84.67,3.56,3.56,0,0,1-1.39.25A4.43,4.43,0,0,1,152.71,88.19Z"/><path class="cls-1" d="M160.1,82.67h-2.22v-.81h5.36v.81H161v5.67h-.92Z"/><path class="cls-1" d="M169,86.72h-3.44l-.72,1.62h-.95l2.94-6.48h.91l2.95,6.48h-1Zm-1.45-5.51a2.73,2.73,0,0,1-.4-.28,1.64,1.64,0,0,0-.24-.19.41.41,0,0,0-.2-.06.44.44,0,0,0-.34.16.72.72,0,0,0-.14.42h-.5a1.39,1.39,0,0,1,.27-.83.77.77,0,0,1,.64-.3.71.71,0,0,1,.39.1,2.47,2.47,0,0,1,.4.28l.25.19a.33.33,0,0,0,.19.06.43.43,0,0,0,.34-.15.63.63,0,0,0,.13-.41h.5a1.3,1.3,0,0,1-.26.8.79.79,0,0,1-.64.3A.8.8,0,0,1,167.53,81.21ZM168.66,86l-1.4-3.18L165.86,86Z"/><path class="cls-1" d="M173.62,88a3.3,3.3,0,0,1-1.24-1.19,3.39,3.39,0,0,1-.44-1.7,3.33,3.33,0,0,1,.44-1.69,3.15,3.15,0,0,1,1.24-1.19,3.84,3.84,0,0,1,3.53,0,3.17,3.17,0,0,1,1.23,1.18A3.31,3.31,0,0,1,177.15,88a3.84,3.84,0,0,1-3.53,0Zm3-.72a2.43,2.43,0,0,0,.9-.9,2.61,2.61,0,0,0,0-2.54,2.43,2.43,0,0,0-.9-.9,2.74,2.74,0,0,0-2.57,0,2.38,2.38,0,0,0-.91.9,2.61,2.61,0,0,0,0,2.54,2.38,2.38,0,0,0,.91.9,2.74,2.74,0,0,0,2.57,0Z"/><path class="cls-1" d="M188.71,86.72h-3.44l-.71,1.62h-1l2.94-6.48h.91l3,6.48h-1Zm-.32-.74L187,82.8,185.59,86Z"/><path class="cls-1" d="M198.3,88.34V83.62L196,87.56h-.43l-2.34-3.91v4.69h-.89V81.86h.76l2.7,4.56,2.67-4.56h.76v6.48Z"/><path class="cls-1" d="M207.31,85.55a1.67,1.67,0,0,1,.32,1,1.51,1.51,0,0,1-.63,1.3,3.2,3.2,0,0,1-1.85.45h-3.09V81.86H205a2.91,2.91,0,0,1,1.72.44,1.44,1.44,0,0,1,.61,1.24,1.59,1.59,0,0,1-.24.88,1.62,1.62,0,0,1-.63.56A1.77,1.77,0,0,1,207.31,85.55ZM203,82.61v2.07h1.9a1.9,1.9,0,0,0,1.1-.26.89.89,0,0,0,.38-.77.91.91,0,0,0-.38-.78,2,2,0,0,0-1.1-.26Zm3.32,4.72a.9.9,0,0,0,.4-.81c0-.72-.53-1.09-1.59-1.09H203v2.16h2.13A2.14,2.14,0,0,0,206.3,87.33Z"/><path class="cls-1" d="M210,81.86h.93v6.48H210Z"/><path class="cls-1" d="M218.49,87.54v.8h-4.7V81.86h4.57v.81h-3.65v2H218v.78h-3.25v2.1Z"/><path class="cls-1" d="M226.49,81.86v6.48h-.76l-3.89-4.83v4.83h-.92V81.86h.76l3.89,4.83V81.86Z"/><path class="cls-1" d="M230.65,82.67h-2.22v-.81h5.36v.81h-2.22v5.67h-.92Z"/><path class="cls-1" d="M239.53,86.72h-3.44l-.72,1.62h-1l2.93-6.48h.92l2.95,6.48h-1Zm-.32-.74-1.4-3.18L236.41,86Z"/><path class="cls-1" d="M243.1,81.86H244v5.68h3.51v.8H243.1Z"/><path class="cls-2" d="M51.76,25.84H38.34a6.84,6.84,0,0,1,3.17-5l.18-.1a6.82,6.82,0,0,1,6.72,0l.18.11a6.84,6.84,0,0,1,3.17,5Z"/><path class="cls-3" d="M83,25.34H64.47a6.36,6.36,0,0,0-2.46.5H53.26a8.45,8.45,0,0,0-.73-2.71l13.54-7.82,15.25,8.8A9.05,9.05,0,0,1,83,25.34Z"/><path class="cls-4" d="M64.58,14.45,51.77,21.84a8.19,8.19,0,0,0-2-2l6-10.47Z"/><path class="cls-4" d="M54.54,8.66l-6,10.45a8.22,8.22,0,0,0-2.72-.72V4.54a8.38,8.38,0,0,1,3.54,1.11Z"/><path class="cls-4" d="M44.31,4.54V18.39a8.39,8.39,0,0,0-2.72.71l-6-10.44,5.21-3A8.38,8.38,0,0,1,44.31,4.54Z"/><path class="cls-4" d="M40.3,19.86a8.27,8.27,0,0,0-2,2L25.53,14.45h0l6-3.46L34.27,9.4Z"/><path class="cls-3" d="M37.57,23.13a8.25,8.25,0,0,0-.72,2.71H6.67a8.73,8.73,0,0,1,2.12-1.73L24,15.31l.37.22h0Z"/><path class="cls-5" d="M23.77,63.43a.52.52,0,0,0-.11.1l-2.75,2.76L16.16,71a4.42,4.42,0,0,1-2.69,1.11H5.33a8.43,8.43,0,0,1-.83-3.66V62l.77-.41A12.17,12.17,0,0,1,12,59.74a12.18,12.18,0,0,1,6.76,1.84A14,14,0,0,0,23.77,63.43Z"/><path class="cls-6" d="M85.61,31.54v3.94H80.54a6.35,6.35,0,0,0-4.21,1.6s-.09.08-8.9,8.9L57.28,56.12,47.15,66.26,32.26,81.15a3.84,3.84,0,0,1-2.71,1.12H19.84l-11-6.38a8.43,8.43,0,0,1-1.68-1.27h6.36a6.9,6.9,0,0,0,4.39-1.77l0,0s1.84-1.85,4.77-4.76l2.75-2.76,7.06-7.05L43.36,47.37c3-3,6-6,8.56-8.58L61.77,29a3.78,3.78,0,0,1,2.7-1.12H84.76A8.52,8.52,0,0,1,85.61,31.54Z"/><path class="cls-5" d="M40.48,46.72l-9.76,9.76-5.6,5.59a12.29,12.29,0,0,1-5.63-1.8,13.66,13.66,0,0,0-7.47-2,13.69,13.69,0,0,0-7.47,2l0,0V49l.77-.41A12.26,12.26,0,0,1,12,46.71a12.27,12.27,0,0,1,6.76,1.84,13.66,13.66,0,0,0,7.47,2,13.69,13.69,0,0,0,7.47-2,12.27,12.27,0,0,1,6.76-1.84Z"/><path class="cls-5" d="M50.28,36.92l-.12.11-8.24,8.25q-.68-.06-1.44-.06a13.57,13.57,0,0,0-7.47,2,12.29,12.29,0,0,1-6.76,1.84,12.27,12.27,0,0,1-6.76-1.84,13.57,13.57,0,0,0-7.47-2,13.6,13.6,0,0,0-7.47,2l0,0V35.93l.77-.41A12.26,12.26,0,0,1,12,33.68a12.27,12.27,0,0,1,6.76,1.84,13.57,13.57,0,0,0,7.47,2,13.6,13.6,0,0,0,7.47-2,12.27,12.27,0,0,1,6.76-1.84,12.26,12.26,0,0,1,6.75,1.84A18,18,0,0,0,50.28,36.92Z"/><path class="cls-5" d="M59.86,27.33,51.49,35.7a13.89,13.89,0,0,1-3.55-1.49,13.65,13.65,0,0,0-7.46-2,13.66,13.66,0,0,0-7.47,2,12.21,12.21,0,0,1-6.76,1.84,12.18,12.18,0,0,1-6.76-1.84,13.66,13.66,0,0,0-7.47-2,13.69,13.69,0,0,0-7.47,2l0,0v-2.7a8.51,8.51,0,0,1,1.11-4.21Z"/><path class="cls-7" d="M85.61,38v8.15H70.81L78,38.94a3.88,3.88,0,0,1,2.56-1Z"/><path class="cls-7" d="M85.61,47.61v8.65H60.67l8.52-8.52.13-.13Z"/><path class="cls-7" d="M85.61,57.75v8.64H50.54L59,57.88l.14-.13Z"/><path class="cls-7" d="M85.61,67.88v.59a8.58,8.58,0,0,1-4.29,7.42l-1.11.64H40.4L48.91,68l.13-.14Z"/><path class="cls-7" d="M77.63,78l-15,8.65H27.44L26.3,86l-2.15-1.25h5.4A6.31,6.31,0,0,0,34,82.92L38.91,78Z"/><path class="cls-7" d="M60.07,88.16l-10.73,6.2a8.56,8.56,0,0,1-8.57,0L30,88.16Z"/><path class="cls-1" d="M83.57,20.22l-32-18.46a13,13,0,0,0-13.07,0l-32,18.46A13.1,13.1,0,0,0,0,31.54V68.47A13.12,13.12,0,0,0,6.54,79.79l32,18.46a13.08,13.08,0,0,0,13.07,0l32-18.46a13.12,13.12,0,0,0,6.54-11.32V31.54A13.1,13.1,0,0,0,83.57,20.22Zm-2.25,3.89A9.05,9.05,0,0,1,83,25.34H64.47a6.36,6.36,0,0,0-2.46.5H53.26a8.45,8.45,0,0,0-.73-2.71l13.54-7.82ZM64.58,14.45,51.77,21.84a8.19,8.19,0,0,0-2-2l6-10.47ZM45.8,4.54a8.38,8.38,0,0,1,3.54,1.11l5.2,3-6,10.45a8.22,8.22,0,0,0-2.72-.72Zm2.61,16.19.18.11a6.84,6.84,0,0,1,3.17,5H38.34a6.84,6.84,0,0,1,3.17-5l.18-.1a6.82,6.82,0,0,1,6.72,0ZM40.77,5.65a8.38,8.38,0,0,1,3.54-1.11V18.39a8.39,8.39,0,0,0-2.72.71l-6-10.44ZM25.53,14.44l6-3.46L34.27,9.4l6,10.46a8.27,8.27,0,0,0-2,2L25.53,14.45ZM8.79,24.11,24,15.31l.37.22h0l13.16,7.61a8.25,8.25,0,0,0-.72,2.71H6.67A8.73,8.73,0,0,1,8.79,24.11ZM4.5,31.54a8.51,8.51,0,0,1,1.11-4.21H59.86L51.49,35.7a13.89,13.89,0,0,1-3.55-1.49,13.65,13.65,0,0,0-7.46-2,13.66,13.66,0,0,0-7.47,2,12.21,12.21,0,0,1-6.76,1.84,12.18,12.18,0,0,1-6.76-1.84,13.66,13.66,0,0,0-7.47-2,13.69,13.69,0,0,0-7.47,2l0,0Zm0,4.39.77-.41A12.26,12.26,0,0,1,12,33.68a12.27,12.27,0,0,1,6.76,1.84,13.57,13.57,0,0,0,7.47,2,13.6,13.6,0,0,0,7.47-2,12.27,12.27,0,0,1,6.76-1.84,12.26,12.26,0,0,1,6.75,1.84,18,18,0,0,0,3.05,1.4l-.12.11-8.24,8.25q-.68-.06-1.44-.06a13.57,13.57,0,0,0-7.47,2,12.29,12.29,0,0,1-6.76,1.84,12.27,12.27,0,0,1-6.76-1.84,13.57,13.57,0,0,0-7.47-2,13.6,13.6,0,0,0-7.47,2l0,0Zm0,13,.77-.41A12.26,12.26,0,0,1,12,46.71a12.27,12.27,0,0,1,6.76,1.84,13.66,13.66,0,0,0,7.47,2,13.69,13.69,0,0,0,7.47-2,12.27,12.27,0,0,1,6.76-1.84h0l-9.76,9.76-5.6,5.59a12.29,12.29,0,0,1-5.63-1.8,13.66,13.66,0,0,0-7.47-2,13.69,13.69,0,0,0-7.47,2l0,0Zm.83,23.17a8.43,8.43,0,0,1-.83-3.66V62l.77-.41A12.17,12.17,0,0,1,12,59.74a12.18,12.18,0,0,1,6.76,1.84,14,14,0,0,0,5,1.85.52.52,0,0,0-.11.1l-2.75,2.76L16.16,71a4.42,4.42,0,0,1-2.69,1.11Zm44,22.23a8.56,8.56,0,0,1-8.57,0L30,88.16h30Zm13.32-7.69H27.44L26.3,86l-2.15-1.25h5.4A6.31,6.31,0,0,0,34,82.92L38.91,78H77.63Zm23-18.2a8.58,8.58,0,0,1-4.29,7.42l-1.11.64H40.4L48.91,68l.13-.14H85.61Zm0-2.08H50.54L59,57.88l.14-.13H85.61Zm0-10.13H60.67l8.52-8.52.13-.13H85.61Zm0-10.14H70.81L78,38.94a3.88,3.88,0,0,1,2.56-1h5.07Zm0-10.64H80.54a6.35,6.35,0,0,0-4.21,1.6s-.09.08-8.9,8.9L57.28,56.12,47.15,66.26,32.26,81.15a3.84,3.84,0,0,1-2.71,1.12H19.84l-11-6.38a8.43,8.43,0,0,1-1.68-1.27h6.36a6.9,6.9,0,0,0,4.39-1.77l0,0s1.84-1.85,4.77-4.76l2.75-2.76,7.06-7.05L43.36,47.37c3-3,6-6,8.56-8.58L61.77,29a3.78,3.78,0,0,1,2.7-1.12H84.76a8.52,8.52,0,0,1,.85,3.71Z"/></svg>